<?xml version="1.0" encoding="utf-8"?>
<!-- Generator: Adobe Illustrator 27.5.0, SVG Export Plug-In . SVG Version: 6.00 Build 0)  -->
<svg version="1.1" xmlns="http://www.w3.org/2000/svg" xmlns:xlink="http://www.w3.org/1999/xlink" x="0px" y="0px"
	 viewBox="0 0 500 500" style="enable-background:new 0 0 500 500;" xml:space="preserve">
<g id="BACKGROUND">
	<rect y="0.001" style="fill-rule:evenodd;clip-rule:evenodd;fill:#FFFFFF;" width="500" height="500"/>
</g>
<g id="OBJECTS">
	<g>
		<path style="fill-rule:evenodd;clip-rule:evenodd;fill:#EECCCD;" d="M228.011,108.768c0,0-25.632,56.825-97.63,57.045
			c-71.998,0.222-43.966-77.974,22.59-83.369C219.527,77.048,236.886,93.384,228.011,108.768z"/>
		<path style="fill-rule:evenodd;clip-rule:evenodd;fill:#EECCCD;" d="M64.496,408.215c-45.08-58.729-56.184-172.653,19.853-207.159
			c28.562-12.961,65.059-15.206,95.629-31.616c34.459-18.499,55.885-62.296,89.173-86.257
			C395.265-7.601,565.065,255.214,407.544,408.215l-50.24,9.379H104.531L64.496,408.215z"/>
		<path style="fill-rule:evenodd;clip-rule:evenodd;fill:#1B1061;" d="M89.732,224.598c0,0,2.384-0.108,2.059,6.393
			c-0.325,6.502-2.493,20.046-2.493,20.046s-1.587,4.53-4.009,4.118l-6.555-6.339l-1.355-22.917L89.732,224.598z"/>
		<g>
			<path style="fill-rule:evenodd;clip-rule:evenodd;fill:#E7B7B9;" d="M291.195,367.516c0.118-10.049,4.392-28.154,26.763-52.343
				c35.387-38.262,48.347-77.416,9.318-84.682c-38.302-7.13-89.594,49.294-71.681,140.578
				C270.094,370.228,281.797,369.005,291.195,367.516z"/>
			<path style="fill-rule:evenodd;clip-rule:evenodd;fill:#DE9396;" d="M271.237,365.412c1.597-0.604,5.983-2.097,12.888-3.208
				c0.482-0.077,0.749-0.336,0.595-0.577c-0.154-0.242-0.672-0.374-1.155-0.297c-6.047,0.974-10.279,2.247-12.473,3.006
				c-0.202-1.536-0.383-3.057-0.54-4.562c2.598-0.928,10.995-3.91,14.31-4.91c0.434-0.131,0.574-0.414,0.313-0.631
				s-0.827-0.288-1.262-0.156c-3.044,0.918-10.181,3.437-13.48,4.609c-0.278-2.813-0.479-5.565-0.614-8.27
				c2.585-0.847,10.664-3.428,20.226-5.82c0.453-0.113,0.639-0.39,0.411-0.616c-0.227-0.228-0.779-0.319-1.234-0.206
				c-8.668,2.169-16.14,4.496-19.463,5.565c-0.118-2.721-0.161-5.384-0.144-7.994c3.545-1.163,15.146-4.88,28.878-8.316
				c0.454-0.114,0.64-0.392,0.412-0.617c-0.227-0.227-0.778-0.319-1.233-0.206c-12.709,3.181-23.586,6.594-28.04,8.035
				c0.049-3.421,0.213-6.745,0.48-9.975c3.556-1.325,18.464-6.688,32.349-8.739c0.487-0.072,0.767-0.327,0.624-0.57
				c-0.144-0.244-0.653-0.384-1.141-0.314c-12.936,1.913-26.69,6.619-31.742,8.45c0.358-3.957,0.876-7.766,1.524-11.439
				c5.183-1.559,26.308-7.637,40.241-7.51c0.507,0.003,0.925-0.199,0.932-0.453c0.007-0.253-0.396-0.464-0.905-0.467
				c-13.517-0.121-33.294,5.313-40.055,7.296c0.72-3.88,1.589-7.604,2.586-11.169c4.205-0.828,21.975-4.166,41.211-5.448
				c0.502-0.033,0.857-0.265,0.79-0.515c-0.065-0.252-0.527-0.428-1.028-0.395c-18.224,1.213-35.126,4.248-40.685,5.316
				c0.607-2.103,1.259-4.15,1.948-6.143c3.976-0.831,21.14-4.191,47.273-6.127c0.503-0.037,0.85-0.271,0.777-0.522
				c-0.074-0.251-0.541-0.424-1.043-0.388c-24.385,1.806-41.079,4.855-46.622,5.966c1.678-4.705,3.567-9.108,5.605-13.206
				c5.405-0.775,32.895-4.598,49.73-4.862c0.506-0.008,0.903-0.22,0.888-0.472c-0.017-0.254-0.44-0.452-0.946-0.444
				c-16.17,0.255-41.872,3.724-49.146,4.749c1.211-2.376,2.468-4.652,3.761-6.825c4.653-0.646,26.119-3.496,48.149-4.296
				c0.504-0.018,0.886-0.236,0.849-0.49c-0.035-0.252-0.476-0.442-0.98-0.425c-20.76,0.754-41.003,3.311-47.389,4.173
				c3.077-5.051,6.329-9.549,9.578-13.512c4.334-0.833,24.083-4.465,41.752-5.104c0.505-0.017,0.887-0.237,0.851-0.491
				c-0.036-0.252-0.477-0.442-0.98-0.424c-16.246,0.588-34.169,3.658-40.654,4.856c1.365-1.624,2.725-3.151,4.069-4.589
				c3.227-0.874,15.429-3.971,33.717-6.127c0.494-0.057,0.801-0.305,0.687-0.552c-0.116-0.247-0.61-0.4-1.105-0.342
				c-15.612,1.841-26.884,4.372-31.999,5.651c11.037-11.445,20.52-16.628,20.597-16.671c0.506-0.284,0.454-0.721-0.115-0.973
				c-0.569-0.253-1.44-0.228-1.946,0.057c-0.05,0.03-4.221,2.309-10.251,7.156c0.336-2.296,0.883-5.494,1.402-6.069
				c0.207-0.229,0.002-0.502-0.459-0.606c-0.463-0.104-1.007-0.001-1.214,0.23c-0.8,0.887-1.563,6.295-1.804,8.16
				c-2.382,2.014-4.982,4.38-7.693,7.129l-2.651-10.003c-0.064-0.252-0.526-0.428-1.029-0.395c-0.501,0.033-0.854,0.263-0.79,0.513
				l3.018,11.386c-1.821,1.914-3.68,3.996-5.541,6.246l-3.946-11.586c-0.084-0.249-0.557-0.417-1.057-0.376
				c-0.498,0.042-0.837,0.279-0.753,0.528l4.443,13.049c-2.727,3.415-5.446,7.193-8.05,11.363l-5.462-11.538
				c-0.114-0.247-0.609-0.4-1.104-0.343c-0.492,0.058-0.801,0.305-0.686,0.552l6.19,13.076c-1.157,1.926-2.288,3.925-3.383,6.01
				l-5.294-10.27c-0.125-0.247-0.625-0.395-1.117-0.333c-0.492,0.063-0.79,0.313-0.664,0.559l6.126,11.888
				c-1.963,3.906-3.796,8.084-5.441,12.538l-6.494-9.577c-0.163-0.241-0.685-0.371-1.165-0.29c-0.48,0.082-0.738,0.343-0.577,0.583
				l7.56,11.147c-0.625,1.783-1.216,3.615-1.776,5.486l-5.871-7.004c-0.194-0.234-0.733-0.344-1.2-0.247
				c-0.468,0.098-0.688,0.367-0.492,0.602l7.048,8.408c-0.997,3.511-1.868,7.175-2.6,10.989l-6.999-7.651
				c-0.212-0.23-0.757-0.332-1.218-0.226c-0.462,0.105-0.663,0.378-0.451,0.608l8.322,9.097c-0.598,3.371-1.074,6.866-1.429,10.475
				l-6.773-6.61c-0.23-0.225-0.784-0.315-1.236-0.201c-0.452,0.117-0.632,0.393-0.401,0.619l8.242,8.044
				c-0.27,3.176-0.44,6.443-0.502,9.804l-7.41-5.524c-0.281-0.21-0.852-0.268-1.274-0.128c-0.421,0.143-0.536,0.428-0.254,0.639
				l8.912,6.642c-0.021,2.446,0.02,4.944,0.121,7.489l-7.562-4.285c-0.334-0.19-0.915-0.209-1.295-0.042
				c-0.38,0.169-0.417,0.458-0.081,0.648l9.004,5.103c0.114,2.355,0.279,4.751,0.501,7.189l-5.228-2.654
				c-0.356-0.181-0.938-0.182-1.299-0.004c-0.362,0.178-0.367,0.47-0.011,0.65l6.668,3.383c0.183,1.832,0.401,3.689,0.647,5.565
				l-5.897-1.63c-0.443-0.124-1.001-0.042-1.246,0.179c-0.244,0.222-0.084,0.501,0.359,0.624l6.93,1.915
				c0.21,1.536,0.44,3.087,0.692,4.653c0.925-0.079,1.835-0.159,2.731-0.241C271.659,368.367,271.439,366.882,271.237,365.412z"/>
		</g>
		<path style="fill-rule:evenodd;clip-rule:evenodd;fill:#DE9396;" d="M313.105,405.949c0.193-4.791,0.559-9.422,1.085-13.896
			c0.535-4.545,1.235-8.904,2.093-13.085c3.205-15.636,8.592-28.823,15.637-39.814c7.622-11.892,17.18-21.205,28.014-28.252
			c10.039-6.53,21.162-11.103,32.846-13.975c12.532-3.079,25.714-4.199,38.893-3.668c4.446,0.179,8.911,0.548,13.363,1.096
			c4.508,0.554,8.986,1.29,13.408,2.197v-0.004c0.501,0.102,0.916,0.398,1.179,0.796c0.262,0.396,0.373,0.891,0.27,1.392
			l-0.031,0.125c-0.38,1.721-8.644,38.577-30.661,70.224c-22.271,32.012-58.55,58.713-114.865,38.727
			c-0.402-0.144-0.725-0.411-0.939-0.746C313.188,406.741,313.081,406.35,313.105,405.949L313.105,405.949L313.105,405.949z
			 M457.755,299.434c-2.261,0.599-11.564,3.202-24.849,8.826c4.769,1.421,15.569,4.724,20.342,6.871
			C455.791,307.394,457.225,301.68,457.755,299.434L457.755,299.434z M452.685,316.825l-0.02-0.01
			c-5.511-2.517-20.135-6.818-22.315-7.455c-6.616,2.888-14.109,6.488-22.137,10.914l37.557,14.589
			C448.608,328.287,450.896,322.133,452.685,316.825L452.685,316.825z M445.062,336.491l-38.865-15.097
			c-7.475,4.205-15.384,9.12-23.457,14.834c7.668,3.323,44.326,19.291,50.391,23.276
			C437.854,351.735,441.804,343.873,445.062,336.491L445.062,336.491z M432.204,361.012c-6.099-4.053-46.573-21.603-51.151-23.584
			c-6.461,4.648-13.016,9.807-19.531,15.523l57.502,25.839c0.072,0.032,0.138,0.073,0.196,0.121c3-3.523,5.797-7.186,8.398-10.925
			C429.221,365.684,430.747,363.355,432.204,361.012L432.204,361.012z M418.026,380.292l-57.966-26.047
			c-5.076,4.523-10.12,9.388-15.071,14.613c9.347,4.393,57.383,25.555,57.527,25.619c0.134,0.059,0.246,0.146,0.332,0.252
			C408.395,390.412,413.441,385.522,418.026,380.292L418.026,380.292z M401.326,395.89c-5.09-2.244-50.046-22.064-57.614-25.675
			c-4.251,4.558-8.428,9.384-12.489,14.495c11.104,7.148,49.487,21.917,49.603,21.96c0.229,0.088,0.4,0.262,0.493,0.469
			C388.597,404.27,395.253,400.426,401.326,395.89L401.326,395.89z M379.19,407.945c-6.149-2.39-38.959-15.265-49.071-21.836
			c-2.598,3.318-5.145,6.756-7.634,10.313c4.311,2.295,23.662,12.363,36.581,15.187c0.367,0.08,0.633,0.376,0.689,0.727
			C366.668,411.648,373.139,410.134,379.19,407.945L379.19,407.945z M355.808,412.629c-13.147-3.612-30.659-12.777-34.339-14.742
			c-1.886,2.739-3.736,5.55-5.545,8.433C330.572,411.4,343.83,413.25,355.808,412.629L355.808,412.629z M315.109,404.28
			c1.675-2.637,3.384-5.213,5.122-7.729c-1.235-5.213-1.587-14.039-1.688-18.977c-0.129,0.589-0.255,1.181-0.377,1.776
			c-0.846,4.127-1.538,8.435-2.066,12.921C315.647,396.122,315.314,400.122,315.109,404.28L315.109,404.28z M319.602,373.09
			c0.391,0.095,0.679,0.446,0.678,0.865c0,0.041-0.046,12.936,1.347,20.595c2.403-3.402,4.86-6.694,7.36-9.877
			c-0.434-2.507-2.719-16.524-2.273-31.95C323.866,358.934,321.475,365.712,319.602,373.09L319.602,373.09z M328.056,349.905
			c0.311,0.148,0.52,0.472,0.505,0.838c-0.629,13.996,1.154,27.203,1.916,32.054c3.933-4.901,7.968-9.543,12.071-13.934
			c-0.689-3.188-4.634-22.163-3.927-35.852c-1.778,2.277-3.475,4.668-5.082,7.177C331.576,343.25,329.745,346.488,328.056,349.905
			L328.056,349.905z M340.142,331.115c0.222,0.177,0.355,0.456,0.332,0.761c-0.929,12.353,2.435,29.984,3.559,35.414
			c4.881-5.131,9.852-9.915,14.852-14.37c-6.017-17.7-5.652-31.521-5.443-34.947C348.659,321.813,344.203,326.183,340.142,331.115
			L340.142,331.115z M355.084,316.682c0.136,0.173,0.21,0.396,0.188,0.634c-0.004,0.042-1.496,14.607,5.055,34.329
			c6.534-5.732,13.11-10.911,19.591-15.576c-2.646-8.413-3.811-28.748-3.961-31.527c-5.206,2.229-10.217,4.879-14.978,7.974
			C358.968,313.825,357.002,315.211,355.084,316.682L355.084,316.682z M377.645,303.836c0.037,0.093,0.06,0.193,0.065,0.3
			c0.004,0.065,1.085,21.71,3.732,30.843c8.175-5.797,16.184-10.784,23.756-15.048c-1.406-10.56-0.078-21.683,0.154-23.474
			c-4.094,0.588-8.139,1.364-12.118,2.342C387.898,300.111,382.685,301.782,377.645,303.836L377.645,303.836z M407.145,296.213
			c0.011,0.076,0.011,0.155,0,0.236c-0.005,0.034-1.619,11.499-0.276,22.549c8.174-4.529,15.806-8.209,22.549-11.16
			c-0.133-5.789,0.988-11.679,1.192-12.69C422.733,294.88,414.865,295.213,407.145,296.213L407.145,296.213z M432.395,295.219
			c-0.002,0.045-0.008,0.092-0.018,0.138c-0.002,0.018-1.226,5.82-1.197,11.717c12.237-5.248,21.292-8.007,24.925-9.027
			c-3.736-0.721-7.508-1.317-11.302-1.783C440.701,295.759,436.56,295.408,432.395,295.219z"/>
		<g>
			<path style="fill-rule:evenodd;clip-rule:evenodd;fill:#DE9396;" d="M402.226,411.498c12.432-20.411,16.12-38.541,5.136-48.906
				c-12.199-11.512-40.276,5.927-68.286,48.906H402.226z"/>
			<path style="fill-rule:evenodd;clip-rule:evenodd;fill:#E7B7B9;" d="M356.522,411.498c1.194-1.525,2.379-2.999,3.55-4.421
				c2.448,0.317,11.799,1.633,22.297,4.421h4.427c-11.267-3.343-22.072-4.997-25.819-5.509c4.414-5.286,8.651-9.862,12.612-13.797
				c3.028,0.1,16.729,0.752,27.665,4.471c0.313,0.107,0.653-0.061,0.76-0.374c0.105-0.311-0.061-0.652-0.374-0.759
				c-10.053-3.419-22.375-4.282-26.878-4.49c1.645-1.604,3.236-3.091,4.773-4.478c2.382-0.23,11.281-0.851,23.357,1.201
				c0.327,0.057,0.637-0.163,0.693-0.488c0.056-0.326-0.164-0.637-0.489-0.692c-10.31-1.753-18.364-1.575-22.085-1.336
				c12.439-10.944,20.766-14.764,20.834-14.794c0.447-0.214,0.637-0.75,0.426-1.198c-0.215-0.448-0.75-0.638-1.198-0.424
				c-0.045,0.021-3.708,1.7-9.79,5.99c1.367-2.672,3.318-6.373,3.923-6.933c0.242-0.223,0.256-0.602,0.032-0.844
				c-0.225-0.243-0.602-0.257-0.845-0.032c-0.931,0.861-4.135,7.162-5.227,9.341c-2.452,1.813-5.216,3.995-8.24,6.609l3.488-12.688
				c0.088-0.318-0.098-0.648-0.416-0.736c-0.318-0.088-0.648,0.1-0.736,0.418l-3.969,14.439c-2.066,1.836-4.24,3.866-6.5,6.096
				l3.514-14.917c0.077-0.32-0.122-0.643-0.443-0.72c-0.321-0.077-0.643,0.122-0.721,0.442l-3.957,16.803
				c-3.372,3.406-6.923,7.253-10.603,11.602l2.579-15.243c0.056-0.326-0.164-0.637-0.49-0.693c-0.324-0.056-0.636,0.163-0.691,0.489
				l-2.923,17.275c-1.574,1.902-3.168,3.887-4.781,5.97H356.522L356.522,411.498z M354.032,411.498h-1.211l2.004-13.469
				c0.051-0.327,0.357-0.552,0.685-0.503c0.326,0.05,0.551,0.356,0.501,0.684L354.032,411.498z"/>
		</g>
		<g>
			<path style="fill-rule:evenodd;clip-rule:evenodd;fill:#E7B7B9;" d="M186.016,340.646c-0.059-10.049-2.196-28.154-13.381-52.342
				c-17.693-38.262-24.174-77.416-4.66-84.683c19.151-7.13,44.796,49.294,35.841,140.581
				C196.567,343.359,190.715,342.135,186.016,340.646z"/>
			<path style="fill-rule:evenodd;clip-rule:evenodd;fill:#DE9396;" d="M195.995,338.543c-0.798-0.605-2.992-2.097-6.444-3.208
				c-0.241-0.077-0.374-0.336-0.297-0.577c0.078-0.241,0.336-0.374,0.578-0.297c3.023,0.973,5.14,2.246,6.236,3.006
				c0.102-1.537,0.191-3.057,0.271-4.563c-1.3-0.927-5.497-3.909-7.155-4.909c-0.217-0.131-0.287-0.413-0.157-0.631
				c0.131-0.219,0.414-0.288,0.631-0.157c1.522,0.919,5.09,3.436,6.74,4.609c0.139-2.813,0.24-5.565,0.308-8.268
				c-1.293-0.847-5.333-3.428-10.113-5.821c-0.227-0.112-0.319-0.39-0.205-0.616c0.113-0.228,0.389-0.319,0.617-0.205
				c4.334,2.169,8.069,4.495,9.731,5.566c0.059-2.722,0.081-5.385,0.072-7.996c-1.773-1.162-7.573-4.88-14.439-8.315
				c-0.227-0.115-0.32-0.39-0.206-0.617c0.113-0.227,0.389-0.319,0.617-0.207c6.355,3.183,11.793,6.594,14.021,8.037
				c-0.024-3.423-0.107-6.745-0.24-9.978c-1.777-1.326-9.232-6.686-16.174-8.739c-0.244-0.071-0.383-0.327-0.313-0.569
				c0.071-0.245,0.327-0.385,0.57-0.313c6.469,1.912,13.346,6.618,15.871,8.45c-0.179-3.958-0.437-7.768-0.762-11.44
				c-2.591-1.56-13.154-7.638-20.12-7.511c-0.254,0.003-0.462-0.199-0.466-0.453c-0.003-0.253,0.199-0.461,0.453-0.466
				c6.759-0.122,16.648,5.312,20.027,7.297c-0.36-3.882-0.794-7.605-1.293-11.171c-2.102-0.827-10.988-4.166-20.606-5.447
				c-0.251-0.033-0.428-0.263-0.395-0.516c0.033-0.251,0.264-0.427,0.515-0.393c9.111,1.212,17.563,4.249,20.342,5.315
				c-0.304-2.102-0.629-4.15-0.974-6.143c-1.988-0.831-10.57-4.19-23.638-6.127c-0.251-0.037-0.424-0.271-0.387-0.521
				c0.036-0.251,0.27-0.426,0.521-0.388c12.192,1.806,20.54,4.854,23.311,5.967c-0.84-4.705-1.783-9.109-2.803-13.207
				c-2.703-0.774-16.446-4.598-24.865-4.862c-0.253-0.008-0.452-0.22-0.443-0.474c0.008-0.252,0.22-0.451,0.474-0.443
				c8.084,0.254,20.936,3.726,24.572,4.749c-0.605-2.375-1.234-4.651-1.88-6.824c-2.327-0.647-13.06-3.497-24.074-4.297
				c-0.252-0.018-0.443-0.236-0.425-0.49c0.018-0.252,0.237-0.443,0.49-0.424c10.381,0.752,20.502,3.309,23.695,4.172
				c-1.539-5.051-3.165-9.55-4.789-13.512c-2.167-0.832-12.041-4.463-20.876-5.103c-0.253-0.018-0.442-0.239-0.425-0.491
				c0.018-0.251,0.237-0.442,0.491-0.424c8.122,0.588,17.084,3.658,20.326,4.856c-0.682-1.624-1.362-3.151-2.034-4.589
				c-1.613-0.873-7.714-3.97-16.857-6.127c-0.247-0.057-0.401-0.304-0.343-0.552c0.057-0.246,0.304-0.4,0.551-0.341
				c7.807,1.84,13.443,4.37,15.999,5.65c-5.519-11.445-10.26-16.628-10.298-16.672c-0.252-0.283-0.227-0.72,0.057-0.973
				c0.285-0.252,0.72-0.227,0.973,0.058c0.025,0.029,2.112,2.309,5.127,7.156c-0.168-2.296-0.442-5.494-0.701-6.069
				c-0.104-0.229-0.001-0.501,0.229-0.606c0.231-0.104,0.503-0.001,0.607,0.23c0.4,0.886,0.78,6.294,0.902,8.159
				c1.191,2.013,2.491,4.38,3.846,7.13l1.326-10.005c0.033-0.253,0.264-0.428,0.515-0.396c0.251,0.033,0.429,0.263,0.395,0.514
				l-1.508,11.385c0.91,1.913,1.84,3.995,2.771,6.246l1.973-11.587c0.042-0.249,0.279-0.417,0.528-0.376
				c0.25,0.042,0.419,0.279,0.377,0.528l-2.222,13.049c1.364,3.415,2.723,7.192,4.025,11.363l2.731-11.538
				c0.058-0.247,0.305-0.4,0.552-0.343c0.247,0.058,0.401,0.306,0.343,0.552l-3.095,13.076c0.579,1.926,1.145,3.927,1.691,6.011
				l2.647-10.271c0.062-0.247,0.313-0.395,0.559-0.333c0.246,0.062,0.395,0.313,0.332,0.559l-3.064,11.887
				c0.982,3.906,1.898,8.085,2.721,12.538l3.248-9.577c0.081-0.24,0.341-0.37,0.582-0.289c0.241,0.081,0.37,0.343,0.289,0.583
				l-3.78,11.147c0.313,1.782,0.608,3.616,0.888,5.486l2.936-7.005c0.098-0.234,0.367-0.343,0.6-0.246
				c0.233,0.098,0.344,0.367,0.246,0.601l-3.523,8.409c0.498,3.51,0.934,7.175,1.299,10.989l3.501-7.651
				c0.106-0.232,0.378-0.333,0.609-0.226c0.23,0.104,0.331,0.378,0.226,0.607l-4.162,9.098c0.298,3.37,0.537,6.865,0.714,10.474
				l3.387-6.61c0.116-0.226,0.393-0.315,0.618-0.2c0.226,0.116,0.315,0.394,0.201,0.619l-4.121,8.043
				c0.135,3.176,0.22,6.445,0.251,9.805l3.705-5.524c0.141-0.211,0.426-0.268,0.637-0.128c0.21,0.141,0.268,0.427,0.128,0.638
				l-4.456,6.644c0.009,2.445-0.011,4.943-0.061,7.487l3.78-4.285c0.168-0.19,0.458-0.208,0.648-0.04
				c0.189,0.167,0.208,0.457,0.041,0.648l-4.502,5.102c-0.058,2.355-0.14,4.751-0.251,7.189l2.614-2.653
				c0.179-0.18,0.47-0.182,0.651-0.005c0.181,0.179,0.183,0.47,0.004,0.651l-3.333,3.385c-0.091,1.829-0.201,3.686-0.324,5.562
				l2.949-1.629c0.222-0.123,0.501-0.042,0.623,0.179c0.122,0.221,0.041,0.502-0.18,0.623l-3.465,1.916
				c-0.104,1.536-0.22,3.087-0.346,4.652c-0.462-0.077-0.918-0.158-1.366-0.241C195.784,341.497,195.895,340.012,195.995,338.543z"
				/>
		</g>
		<path style="fill-rule:evenodd;clip-rule:evenodd;fill:#DE9396;" d="M185.864,407.899c-0.209-0.949-0.426-1.89-0.65-2.819
			c-3.738-15.517-9.571-28.514-16.987-39.258c-8.023-11.624-17.895-20.606-28.963-27.279c-10.255-6.183-21.529-10.374-33.303-12.845
			c-12.63-2.649-25.842-3.317-38.996-2.339c-4.438,0.332-8.887,0.853-13.319,1.553c-4.485,0.706-8.935,1.598-13.325,2.653l0-0.003
			c-0.498,0.118-0.901,0.431-1.15,0.836c-0.249,0.404-0.343,0.902-0.225,1.398l0.037,0.125c0.438,1.706,9.956,38.259,33.041,69.137
			c2.253,3.014,4.637,5.974,7.152,8.841h2.58c-2.902-3.222-5.631-6.571-8.189-9.993c-1.68-2.245-3.285-4.523-4.82-6.814
			c5.956-4.258,45.807-23.18,50.315-25.316c6.616,4.424,13.343,9.357,20.049,14.847l-55.548,27.277H87.6l53.019-26.034
			c5.227,4.347,10.436,9.036,15.561,14.09c-3.731,1.912-13.74,6.803-24.325,11.944h4.055c9.832-4.781,18.63-9.091,21.593-10.63
			c3.377,3.382,6.716,6.922,9.998,10.63h2.366c-3.684-4.216-7.442-8.221-11.247-12.022c0.58-3.21,3.874-22.31,2.7-35.965
			c1.854,2.215,3.631,4.547,5.324,6.999c2.066,2.994,4.006,6.166,5.812,9.523c-0.306,0.159-0.503,0.489-0.476,0.855
			c1.008,12.728-0.008,24.868-0.646,30.609h1.784c0.613-5.575,1.531-16.739,0.776-28.693c3.057,6.109,5.68,12.804,7.803,20.111
			c-0.387,0.108-0.663,0.471-0.648,0.889c0.001,0.02,0.127,3.384,0.102,7.693h1.773c0.01-1.535,0-2.949-0.016-4.137
			c0.148,0.583,0.295,1.17,0.437,1.762c0.189,0.786,0.372,1.577,0.551,2.375H185.864L185.864,407.899z M41.108,330.422
			c2.28,0.522,11.667,2.806,25.135,7.973c-4.715,1.582-15.398,5.253-20.094,7.562C43.342,338.31,41.715,332.65,41.108,330.422
			L41.108,330.422z M46.771,347.63l0.02-0.011c5.421-2.704,19.89-7.502,22.046-8.213c6.712,2.66,14.323,6.004,22.498,10.151
			l-37.038,15.863C51.235,358.946,48.741,352.875,46.771,347.63L46.771,347.63z M55.061,367.023l38.325-16.413
			c7.615,3.946,15.687,8.59,23.952,14.022c-7.551,3.584-43.643,20.793-49.569,24.983C62.784,382.012,58.568,374.29,55.061,367.023
			L55.061,367.023z M159.735,358.068c-0.215,0.184-0.34,0.468-0.307,0.771c1.351,12.314-1.409,30.051-2.346,35.516
			c-5.053-4.963-10.185-9.574-15.334-13.854c5.408-17.896,4.573-31.696,4.247-35.114
			C150.905,349.063,155.508,353.277,159.735,358.068L159.735,358.068z M144.309,344.154c-0.131,0.179-0.196,0.404-0.166,0.64
			c0.006,0.043,1.994,14.547-3.88,34.482c-6.726-5.507-13.474-10.457-20.111-14.898c2.357-8.498,2.827-28.861,2.882-31.643
			c5.278,2.049,10.378,4.523,15.24,7.455C140.33,341.43,142.342,342.75,144.309,344.154L144.309,344.154z M121.324,332.087
			c-0.035,0.093-0.056,0.195-0.057,0.302c-0.001,0.064-0.343,21.733-2.677,30.951c-8.368-5.515-16.542-10.225-24.255-14.229
			c1.044-10.6-0.662-21.671-0.955-23.454c4.109,0.447,8.18,1.086,12.19,1.927C110.948,328.712,116.216,330.205,121.324,332.087
			L121.324,332.087z M91.579,325.475c-0.007,0.077-0.005,0.156,0.009,0.235c0.006,0.034,2.009,11.439,1.046,22.526
			c-8.324-4.246-16.078-7.663-22.918-10.383c-0.065-5.79-1.387-11.638-1.623-12.643C75.954,324.676,83.83,324.739,91.579,325.475
			L91.579,325.475z M66.31,325.342c0.004,0.047,0.011,0.092,0.022,0.138c0.004,0.019,1.425,5.776,1.597,11.67
			c-12.409-4.827-21.554-7.275-25.217-8.171c3.708-0.847,7.458-1.572,11.233-2.168C58.026,326.167,62.154,325.674,66.31,325.342z"/>
		<g>
			<path style="fill-rule:evenodd;clip-rule:evenodd;fill:#DE9396;" d="M175.984,402.569c-2.849-9.635-9.374-24.921-24.265-42.263
				c-25.271-29.433-40.67-63.864-24.881-77.941c15.21-13.561,51.016,28.18,65.796,114.103l-16.586,6.079L175.984,402.569z"/>
			<path style="fill-rule:evenodd;clip-rule:evenodd;fill:#E7B7B9;" d="M132.568,291.553c-0.543-0.483-0.592-1.316-0.109-1.859
				c0.483-0.544,1.315-0.594,1.859-0.111c0.038,0.034,3.261,2.843,8.106,8.404l-1.922-7.309c-0.123-0.469,0.157-0.947,0.624-1.071
				c0.468-0.123,0.948,0.156,1.07,0.626l2.858,10.865c2.193,2.663,4.61,5.783,7.15,9.371l-0.806-9.064
				c-0.044-0.483,0.313-0.91,0.796-0.954c0.483-0.043,0.91,0.314,0.954,0.797l1.081,12.148c2.575,3.798,5.239,8.045,7.893,12.749
				l-0.407-7.893c-0.026-0.484,0.346-0.897,0.83-0.924c0.484-0.025,0.897,0.346,0.922,0.83l0.594,11.522
				c2.686,5.016,5.334,10.494,7.83,16.446l0.443-7.567c0.027-0.482,0.441-0.853,0.924-0.825c0.482,0.028,0.852,0.44,0.825,0.923
				l-0.659,11.248c2.244,5.685,4.341,11.769,6.204,18.251l1.245-4.317c0.135-0.466,0.622-0.734,1.087-0.601
				c0.465,0.135,0.735,0.622,0.6,1.087l-2.035,7.055c1.346,4.99,2.553,10.206,3.578,15.651l1.413-4.265
				c0.153-0.46,0.65-0.71,1.11-0.558c0.46,0.153,0.709,0.65,0.557,1.111l-2.432,7.334c0.459,2.696,0.873,5.446,1.239,8.25
				l-2.537,0.93c-0.358-2.81-0.767-5.567-1.22-8.268c-1.723-1.324-5.927-4.422-8.33-5c-0.471-0.112-0.763-0.586-0.651-1.057
				c0.112-0.472,0.586-0.765,1.057-0.651c2.122,0.511,5.323,2.631,7.481,4.195c-0.381-2.111-0.787-4.191-1.221-6.234
				c-1.838-1.138-6.451-3.817-10.376-4.63c-0.474-0.1-0.779-0.565-0.68-1.039c0.099-0.475,0.564-0.779,1.039-0.681
				c3.366,0.696,7.157,2.65,9.512,4.006c-0.935-4.176-1.977-8.2-3.102-12.082c-2.994-1.02-12.546-4.158-17.244-4.308
				c-0.484-0.014-0.865-0.419-0.85-0.902c0.015-0.485,0.419-0.866,0.903-0.852c4.41,0.14,12.7,2.722,16.583,4.009
				c-1.241-4.12-2.575-8.071-3.982-11.853c-2.936-1.081-12.626-4.445-20.61-4.848c-0.484-0.025-0.857-0.438-0.832-0.921
				c0.024-0.484,0.438-0.857,0.921-0.832c7.19,0.362,15.687,3.044,19.71,4.45c-0.713-1.854-1.443-3.663-2.187-5.43
				c-2.916-1.277-12.969-5.355-24.642-6.441c-0.482-0.043-0.839-0.469-0.796-0.952c0.043-0.481,0.47-0.838,0.953-0.796
				c10.22,0.951,19.236,4.149,23.492,5.87c-2.764-6.338-5.689-12.108-8.629-17.311c-3.887-0.649-19.035-3.07-26.865-2.755
				c-0.483,0.021-0.891-0.357-0.911-0.84c-0.021-0.484,0.357-0.894,0.841-0.913c7.248-0.292,20.456,1.679,25.81,2.542
				c-2.239-3.853-4.474-7.37-6.645-10.564c-3.785-0.256-17.768-1.186-21.176-1.212c-0.484-0.002-0.874-0.397-0.872-0.881
				c0.002-0.483,0.397-0.873,0.881-0.871c3.122,0.023,14.847,0.783,19.898,1.119c-2.883-4.127-5.621-7.66-8.053-10.589
				c-3.586-0.016-12.227-0.035-14.378,0.104c-0.483,0.032-0.901-0.334-0.934-0.818c-0.032-0.483,0.335-0.901,0.819-0.933
				c1.914-0.126,8.9-0.125,13.005-0.111C136.06,294.595,132.607,291.587,132.568,291.553z"/>
		</g>
		<g>
			<g>
				<path style="fill-rule:evenodd;clip-rule:evenodd;fill:#DE9396;" d="M330.093,195.364c-7.959-1.097-11.609-8.031-11.022-9.492
					c0.588-1.462,1.464-1.178,1.464-1.178s16.324,4.218,19.092,3.406c2.768-0.811,12.816-5.406,15.724-5.945
					c2.907-0.54,8.52-1.341,12.784-3.947c4.26-2.606,18.581-10.954,18.581-10.954l14.678,17.282c0,0-20.796,12.515-22.358,14.173
					c-1.561,1.658-5.014,10.906-6.67,13.558c-1.656,2.653-3.109,3.094-3.109,3.094l-26.893,0.914l-5.833-8.077
					c0,0,2.097-5.932,2.365-6.586C340.402,197.946,332.249,195.661,330.093,195.364z"/>
				<path style="fill-rule:evenodd;clip-rule:evenodd;fill:#C35A5A;" d="M397.146,179.538l4.247,4.999
					c0,0-20.796,12.515-22.358,14.173c-1.561,1.658-5.014,10.906-6.67,13.558c-1.656,2.653-3.109,3.094-3.109,3.094l-26.893,0.914
					l-5.004-6.93l3.817-5.531l3.203-3.247l25.103,3.414c0,0,2.402,0.323,3.616-2.018c1.214-2.34,1.26-6.711,1.027-7.925
					c-0.232-1.215,1.497,0.654,2.888,1.106C378.076,195.49,391.08,184.659,397.146,179.538z"/>
				<path style="fill-rule:evenodd;clip-rule:evenodd;fill:#DE9396;" d="M360.534,218.794c0.033,2.358,1.971,4.243,4.33,4.209
					c2.357-0.034,4.242-1.971,4.208-4.33l-0.002-0.047l-0.209-11.051c-0.028-1.915-1.603-3.446-3.519-3.419
					c-1.914,0.027-3.446,1.602-3.418,3.517l-1.352,10.47v0.001l-0.006,0.038C360.544,218.382,360.531,218.587,360.534,218.794z"/>
				<path style="fill-rule:evenodd;clip-rule:evenodd;fill:#DE9396;" d="M351.853,219.411c-0.154,2.63,1.853,4.886,4.483,5.041
					c2.63,0.155,4.887-1.852,5.041-4.482l0.003-0.053l0.665-12.332c0.126-2.136-1.505-3.971-3.642-4.096
					c-2.139-0.126-3.971,1.505-4.097,3.642l-2.357,11.557v0.001l-0.009,0.043C351.897,218.951,351.865,219.178,351.853,219.411z"/>
				<path style="fill-rule:evenodd;clip-rule:evenodd;fill:#DE9396;" d="M341.98,216.911c-0.447,2.746,1.505,5.379,4.362,5.882
					c2.856,0.503,5.536-1.315,5.983-4.061l0.01-0.056l2.033-12.878c0.363-2.231-1.224-4.371-3.545-4.779
					c-2.32-0.409-4.496,1.069-4.859,3.299l-3.801,11.846l-0.001,0.001l-0.014,0.044C342.077,216.434,342.021,216.669,341.98,216.911
					z"/>
				<path style="fill-rule:evenodd;clip-rule:evenodd;fill:#DE9396;" d="M333.961,212.744c-0.746,2.301,0.516,4.769,2.815,5.516
					c2.302,0.745,4.77-0.516,5.516-2.818l0.013-0.046l3.44-10.8c0.606-1.87-0.418-3.874-2.288-4.48
					c-1.868-0.605-3.874,0.419-4.479,2.288l-4.764,9.722v0.001l-0.018,0.035C334.106,212.346,334.026,212.541,333.961,212.744z"/>
				<path style="fill-rule:evenodd;clip-rule:evenodd;fill:#C35A5A;" d="M340.23,197.586c-0.174-0.045-0.353,0.063-0.397,0.237
					c-0.044,0.175,0.063,0.352,0.237,0.397c0.063,0.015,21.332,5.483,26.488-8.219c0.063-0.169-0.022-0.358-0.191-0.42
					c-0.17-0.063-0.356,0.023-0.421,0.192C361.001,202.922,340.29,197.601,340.23,197.586z"/>
				<path style="fill-rule:evenodd;clip-rule:evenodd;fill:#C35A5A;" d="M358.313,197.269c-0.177-0.033-0.348,0.083-0.382,0.261
					c-0.034,0.176,0.083,0.348,0.26,0.38c0.02,0.004,6.844,1.247,9.709,3.849c0.133,0.121,0.341,0.112,0.46-0.022
					c0.122-0.133,0.112-0.341-0.022-0.462C365.339,198.549,358.333,197.274,358.313,197.269z"/>
				
					<path style="fill-rule:evenodd;clip-rule:evenodd;fill:none;stroke:#C35A5A;stroke-width:0.5669;stroke-linecap:round;stroke-linejoin:round;stroke-miterlimit:2.6131;" d="
					M369.008,215.293l-0.147-7.717c-0.028-1.915-1.603-3.446-3.519-3.419c-1.483,0.021-2.735,0.97-3.212,2.286"/>
				
					<path style="fill-rule:evenodd;clip-rule:evenodd;fill:none;stroke:#C35A5A;stroke-width:0.5669;stroke-linecap:round;stroke-linejoin:round;stroke-miterlimit:2.6131;" d="
					M361.377,219.97l0.003-0.053l0.665-12.332c0.126-2.136-1.505-3.971-3.642-4.096c-2.139-0.126-4.151,1.707-4.278,3.845"/>
				
					<path style="fill-rule:evenodd;clip-rule:evenodd;fill:none;stroke:#C35A5A;stroke-width:0.5669;stroke-linecap:round;stroke-linejoin:round;stroke-miterlimit:2.6131;" d="
					M352.326,218.732l0.01-0.056l2.033-12.878c0.363-2.231-1.224-4.371-3.545-4.779c-2.32-0.409-4.496,1.069-4.859,3.299"/>
				
					<path style="fill-rule:evenodd;clip-rule:evenodd;fill:none;stroke:#C35A5A;stroke-width:0.5669;stroke-linecap:round;stroke-linejoin:round;stroke-miterlimit:2.6131;" d="
					M342.03,216.247l3.715-11.651c0.606-1.87-0.418-3.874-2.288-4.48c-1.868-0.605-3.874,0.419-4.479,2.288"/>
			</g>
			<path style="fill-rule:evenodd;clip-rule:evenodd;fill:#CF4A60;" d="M431.646,132.537c-15.77,10.693-54.997,37.329-55.733,38.15
				c-0.921,1.03-0.472,1.899-0.472,1.899s10.321,10.526,12.798,22.705c0,0,0.46,1.187,1.815,0.591
				c0.935-0.413,38.308-17.399,61.287-27.844C445.745,155.386,439.104,143.478,431.646,132.537z"/>
		</g>
		<g>
			<g>
				<path style="fill-rule:evenodd;clip-rule:evenodd;fill:#DE9396;" d="M100.895,255.108l-30.177-6.1c0,0-2.735-11.445,0.08-16.01
					c2.815-4.565,8.032-7.271,8.032-7.271l29.581,5.46L100.895,255.108z"/>
				<path style="fill-rule:evenodd;clip-rule:evenodd;fill:#C35A5A;" d="M100.895,255.108l-30.177-6.1c0,0-0.862-3.605-1.12-7.576
					c7.1,2.46,20.308,6.913,21.695,6.479c1.907-0.598,6.353-5.427,6.353-5.427s2.556,5.529,4.216,9.545L100.895,255.108z"/>
				<path style="fill-rule:evenodd;clip-rule:evenodd;fill:#DE9396;" d="M99.067,237.554c0,0,4.466-6.716,11.694-10.145
					c7.228-3.428,13.318-3.291,17.549-4.137c4.232-0.847,16.301-5.178,16.301-5.178s1.915-0.098,2.616,2.108
					c0.701,2.206-3.038,7.201-5.714,9.061c-2.678,1.859-13.907,5.268-13.907,5.268s6.598,4.439,7.687,5.415
					c1.09,0.977,1.922,4.633,1.347,6.34c-0.576,1.707-3.315,4.573-3.315,4.573s1.465,6.369-4.943,8.646c0,0-0.421,5.078-6.275,5.843
					c0,0-1.622,2.456-3.87,3.123c-2.248,0.666-8.401,0.688-10.892-0.893c-2.49-1.582-11.607-13.408-12.44-17.488
					C94.07,246.013,99.067,237.554,99.067,237.554z"/>
				<path style="fill-rule:evenodd;clip-rule:evenodd;fill:#C35A5A;" d="M133.497,251.136c0.153-0.095,0.2-0.297,0.105-0.449
					c-0.095-0.152-0.297-0.2-0.449-0.105c-0.007,0.005-2.541,1.637-6.484,0.054c-0.371-0.237-5.061-3.254-8.825-6.653
					c-0.029-0.041-0.099-0.142-0.183-0.296l-0.003-0.008l-0.017-0.032c-0.287-0.544-0.711-1.674-0.338-3.115
					c0.038-0.148,0.095-0.299,0.169-0.445c0.362-0.708,1.151-1.389,2.393-1.761c1.284-0.385,3.042-0.436,5.3,0.147
					c1.384,0.355,2.954,0.95,4.713,1.848c0.161,0.083,0.358,0.019,0.44-0.142c0.082-0.161,0.018-0.358-0.143-0.44
					c-0.798-0.407-1.559-0.755-2.283-1.045c0.521-0.142,1.326-0.223,2.385,0.062c0.174,0.047,0.353-0.056,0.401-0.229
					c0.047-0.173-0.056-0.352-0.23-0.399c-1.84-0.498-3.061,0.009-3.462,0.223c-0.579-0.206-1.132-0.375-1.659-0.51
					c-2.387-0.616-4.264-0.556-5.651-0.141c-1.431,0.428-2.351,1.238-2.787,2.09c-0.098,0.191-0.171,0.385-0.221,0.578
					c-0.366,1.422-0.051,2.592,0.259,3.299c-0.741,0.395-2.645,1.61-3.485,4.031c-0.131,0.379-0.15,0.803-0.081,1.255
					c-1.097,0.479-2.322,1.475-3.213,2.585c-0.679,0.847-1.17,1.77-1.28,2.604c-0.829,0.171-3.474,0.87-4.296,2.93
					c-0.495,1.237-0.513,3.449-0.15,5.522c0.337,1.928,1.01,3.76,1.946,4.627c0.132,0.123,0.34,0.114,0.462-0.018
					c0.122-0.134,0.114-0.341-0.019-0.462c-0.823-0.763-1.429-2.458-1.745-4.26c-0.344-1.968-0.337-4.04,0.113-5.167
					c0.667-1.671,2.829-2.312,3.689-2.505l0.006,0.044c0.201,1.162,1.083,3.773,2.463,6.025c0.934,1.522,2.1,2.892,3.451,3.575
					c3.312,1.673,7.339,1.222,7.35,1.221c0.179-0.021,0.309-0.183,0.289-0.361c-0.02-0.179-0.182-0.309-0.36-0.288
					c-0.011,0.001-3.845,0.431-6.983-1.155c-1.229-0.62-2.311-1.901-3.188-3.332c-1.335-2.179-2.185-4.684-2.377-5.795
					c-0.016-0.095-0.023-0.195-0.022-0.298l0.001-0.008l0.001-0.033c0.027-0.737,0.493-1.627,1.158-2.457
					c0.802-0.999,1.883-1.896,2.856-2.348c0.913,2.976,4.857,6.866,6.293,8.281l0.315,0.31c0.727,0.711,2.19,1.351,3.844,1.674
					c1.461,0.285,3.085,0.328,4.497-0.04c0.174-0.046,0.28-0.225,0.234-0.399c-0.046-0.177-0.225-0.28-0.4-0.234
					c-1.312,0.342-2.833,0.299-4.205,0.031c-1.538-0.299-2.874-0.873-3.513-1.496l-0.313-0.311c-1.454-1.434-5.587-5.51-6.217-8.241
					c0.002-0.042-0.005-0.085-0.02-0.127l-0.013-0.029c-0.074-0.405-0.067-0.777,0.047-1.104c0.768-2.217,2.508-3.319,3.169-3.67
					c0.063,0.102,0.104,0.155,0.104,0.155l0.042,0.045c3.962,3.585,8.954,6.753,8.967,6.763l0.051,0.026
					C130.666,252.958,133.489,251.141,133.497,251.136L133.497,251.136z M113.333,245.648c-0.02,0.01-7.092,3.705-12.853-2.983
					c-0.118-0.137-0.103-0.342,0.034-0.461c0.137-0.118,0.343-0.102,0.461,0.035c5.424,6.296,12.047,2.836,12.065,2.825
					c0.161-0.08,0.358-0.014,0.439,0.145C113.56,245.37,113.494,245.567,113.333,245.648L113.333,245.648z M96.538,254.439
					c0.085,0.159,0.283,0.22,0.442,0.135c0.159-0.083,0.22-0.281,0.136-0.442c-0.004-0.008-1.654-3.116-1.816-6.696
					c-0.009-0.181-0.161-0.321-0.342-0.313c-0.18,0.008-0.32,0.162-0.312,0.342C94.815,251.19,96.533,254.43,96.538,254.439
					L96.538,254.439z M105.798,230.924c-0.014,0.011-5.213,4.145-7.958,9.631c-0.081,0.161-0.277,0.227-0.439,0.145
					c-0.162-0.081-0.227-0.277-0.146-0.438c2.808-5.61,8.12-9.837,8.134-9.847c0.142-0.114,0.347-0.091,0.46,0.05
					C105.962,230.605,105.939,230.809,105.798,230.924L105.798,230.924z M127.671,234.851c0.176-0.036,0.291-0.208,0.254-0.386
					c-0.037-0.176-0.21-0.29-0.386-0.254l-2.361,0.492c-0.177,0.036-0.291,0.209-0.254,0.386c0.037,0.177,0.21,0.29,0.387,0.253
					L127.671,234.851z"/>
			</g>
			<path style="fill-rule:evenodd;clip-rule:evenodd;fill:#3C2E99;" d="M89.732,224.598c0,0-14.412,10.403-4.443,30.558
				l-46.152-7.868c5.184-11.792,12.471-22.389,22.111-31.135L89.732,224.598z"/>
		</g>
		<g>
			<g>
				<path style="fill-rule:evenodd;clip-rule:evenodd;fill:#DE9396;" d="M112.277,327.912c0,0,0-1.191,1.409-9.102
					c1.408-7.911-2.926-13.708-4.498-13.599c-1.571,0.107-1.571,1.029-1.571,1.029s-2.601,17.122-4.226,19.504
					c-1.625,2.385-11.378,10.512-12.787,13.113c-1.409,2.6-3.901,7.693-7.693,10.944c-3.792,3.25-16.146,14.304-16.146,14.304
					l11.92,19.287c0,0,18.312-15.928,20.371-16.903c2.059-0.976,11.92-1.409,14.954-2.168c3.034-0.758,3.902-2.005,3.902-2.005
					l9.155-25.303l-5.887-8.041c0,0-6.289,0.169-6.993,0.223C113.483,329.251,112.399,328.953,112.277,327.912z"/>
				<path style="fill-rule:evenodd;clip-rule:evenodd;fill:#C35A5A;" d="M75.237,377.813l3.449,5.58
					c0,0,18.312-15.928,20.371-16.903c2.059-0.976,11.92-1.409,14.954-2.168c3.034-0.758,3.902-2.005,3.902-2.005l9.155-25.303
					l-5.051-6.898l-6.439,1.93l-4.075,2.045l-4.485,24.936c0,0-0.434,2.384-3.034,2.817c-2.601,0.434-6.773-0.868-7.856-1.464
					c-1.084-0.596,0.162,1.625,0.162,3.088C96.289,364.587,81.978,373.621,75.237,377.813z"/>
				<path style="fill-rule:evenodd;clip-rule:evenodd;fill:#DE9396;" d="M123.865,355.078c2.233,0.759,3.428,3.183,2.669,5.416
					c-0.758,2.233-3.183,3.427-5.416,2.671l-0.044-0.017l-10.448-3.605c-1.814-0.616-2.786-2.585-2.169-4.4
					c0.616-1.814,2.586-2.785,4.399-2.168l10.376,1.94h0.001l0.038,0.008C123.47,354.958,123.668,355.011,123.865,355.078z"/>
				<path style="fill-rule:evenodd;clip-rule:evenodd;fill:#DE9396;" d="M127.125,347.009c2.549,0.663,4.079,3.268,3.415,5.817
					c-0.663,2.55-3.268,4.08-5.818,3.416l-0.05-0.014l-11.937-3.167c-2.072-0.539-3.314-2.655-2.775-4.727
					c0.539-2.073,2.655-3.316,4.727-2.775l11.72,1.318h0.001l0.043,0.005C126.675,346.909,126.901,346.951,127.125,347.009z"/>
				<path style="fill-rule:evenodd;clip-rule:evenodd;fill:#DE9396;" d="M127.789,336.846c2.749,0.421,4.653,3.09,4.251,5.963
					c-0.403,2.873-2.957,4.86-5.707,4.44l-0.055-0.009l-12.88-2.033c-2.234-0.34-3.78-2.509-3.454-4.844
					c0.326-2.334,2.402-3.949,4.636-3.608l12.441,0.035h0.001h0.045C127.306,336.792,127.546,336.81,127.789,336.846z"/>
				<path style="fill-rule:evenodd;clip-rule:evenodd;fill:#DE9396;" d="M126.296,327.934c2.419,0,4.378,1.959,4.378,4.378
					c0,2.418-1.96,4.378-4.378,4.378l-0.048-0.001l-11.335-0.054c-1.965,0-3.557-1.594-3.557-3.559c0-1.963,1.592-3.556,3.557-3.556
					l10.715-1.537h0.001l0.039-0.007C125.873,327.948,126.083,327.934,126.296,327.934z"/>
				<path style="fill-rule:evenodd;clip-rule:evenodd;fill:#C35A5A;" d="M109.942,329.228c0.012-0.18,0.168-0.316,0.349-0.305
					c0.18,0.013,0.316,0.168,0.304,0.349c-0.004,0.061-1.357,21.983-15.98,22.668c-0.18,0.008-0.332-0.132-0.34-0.312
					c-0.007-0.181,0.132-0.333,0.313-0.342C108.62,350.631,109.938,329.289,109.942,329.228z"/>
				<path style="fill-rule:evenodd;clip-rule:evenodd;fill:#C35A5A;" d="M104.071,346.333c0.022-0.179,0.186-0.307,0.364-0.282
					c0.178,0.022,0.306,0.185,0.283,0.364c-0.002,0.019-0.922,6.896,0.67,10.422c0.074,0.164,0.001,0.357-0.164,0.433
					c-0.164,0.072-0.358,0-0.432-0.164C103.124,353.41,104.068,346.353,104.071,346.333z"/>
				
					<path style="fill-rule:evenodd;clip-rule:evenodd;fill:none;stroke:#C35A5A;stroke-width:0.5669;stroke-linecap:round;stroke-linejoin:round;stroke-miterlimit:2.6131;" d="
					M117.922,362.059l-7.296-2.516c-1.814-0.616-2.786-2.585-2.169-4.4c0.477-1.404,1.765-2.304,3.165-2.351"/>
				
					<path style="fill-rule:evenodd;clip-rule:evenodd;fill:none;stroke:#C35A5A;stroke-width:0.5669;stroke-linecap:round;stroke-linejoin:round;stroke-miterlimit:2.6131;" d="
					M124.723,356.243l-0.05-0.014l-11.937-3.167c-2.072-0.539-3.314-2.655-2.775-4.727c0.539-2.073,2.904-3.425,4.975-2.886"/>
				
					<path style="fill-rule:evenodd;clip-rule:evenodd;fill:none;stroke:#C35A5A;stroke-width:0.5669;stroke-linecap:round;stroke-linejoin:round;stroke-miterlimit:2.6131;" d="
					M126.333,347.25l-0.055-0.009l-12.88-2.033c-2.234-0.34-3.78-2.509-3.454-4.844c0.326-2.334,2.402-3.949,4.636-3.608"/>
				
					<path style="fill-rule:evenodd;clip-rule:evenodd;fill:none;stroke:#C35A5A;stroke-width:0.5669;stroke-linecap:round;stroke-linejoin:round;stroke-miterlimit:2.6131;" d="
					M127.142,336.689l-12.229-0.054c-1.965,0-3.557-1.594-3.557-3.559c0-1.963,1.592-3.556,3.557-3.556"/>
			</g>
			<path style="fill-rule:evenodd;clip-rule:evenodd;fill:#FFFFFF;" d="M80.629,349.861c0,0,12.354,12.028,15.063,20.479
				l-18.204,16.688L62.424,365.79L80.629,349.861z"/>
			<path style="fill-rule:evenodd;clip-rule:evenodd;fill:#CF4A60;" d="M73.802,353.112c0,0,16.363,15.495,18.096,26.44
				c0,0,0.326,1.625-1.354,3.52c-0.803,0.908-12.271,13.124-24.016,25.62l-2.033-0.475c-7.52-9.797-14.087-21.134-19.469-33.377
				l25.472-20.808C70.499,354.031,71.96,352.513,73.802,353.112z"/>
		</g>
		<g>
			<path style="fill-rule:evenodd;clip-rule:evenodd;fill:#1B1061;" d="M411.948,318.03c0,0-1.531-0.247-2.993,2.029
				c-1.463,2.274-8.02,21.237-8.02,21.237s-0.643,2.896,0.87,3.901c1.511,1.005,4.511,1.484,6.289,1.228
				c1.78-0.254,8.391-8.762,8.391-8.762s4.876-11.919,4.117-12.894C419.845,323.795,414.196,318.871,411.948,318.03z"/>
			<path style="fill-rule:evenodd;clip-rule:evenodd;fill:#C0B0CB;" d="M422.906,320.57c0,0-1.84-0.299-3.601,2.44
				c-1.759,2.735-9.643,25.541-9.643,25.541s-0.773,3.483,1.045,4.692c1.817,1.208,5.425,1.784,7.564,1.478
				c2.14-0.306,10.089-10.537,10.089-10.537s5.864-14.334,4.953-15.507C432.401,327.503,425.608,321.581,422.906,320.57z"/>
			<g>
				<g>
					<path style="fill-rule:evenodd;clip-rule:evenodd;fill:#DE9396;" d="M393.372,338.477l27.09,14.629
						c0,0,9.427-7.044,10.185-12.353c0.759-5.31-1.516-10.728-1.516-10.728l-26.224-14.737L393.372,338.477z"/>
					<path style="fill-rule:evenodd;clip-rule:evenodd;fill:#C35A5A;" d="M393.372,338.477l27.09,14.629
						c0,0,2.971-2.219,5.712-5.105c-7.031-2.654-20.029-7.686-20.817-8.908c-1.083-1.68-1.408-8.235-1.408-8.235
						s-5.502,2.612-9.349,4.634L393.372,338.477z"/>
					<path style="fill-rule:evenodd;clip-rule:evenodd;fill:#DE9396;" d="M406.011,326.159c0,0,0.867-8.018-2.492-15.278
						c-3.358-7.261-8.126-11.053-10.835-14.412c-2.709-3.359-9.21-14.411-9.21-14.411s-1.41-1.301-3.36-0.055
						s-2.275,7.477-1.408,10.619c0.866,3.143,7.315,12.949,7.315,12.949s-7.91-0.813-9.373-0.759
						c-1.464,0.055-4.443,2.33-5.094,4.01c-0.649,1.679-0.379,5.635-0.379,5.635s-5.201,3.956-1.735,9.807
						c0,0-2.926,4.173,1.083,8.506c0,0-0.326,2.926,0.975,4.876c1.302,1.95,6.015,5.906,8.939,6.286
						c2.926,0.378,17.5-2.874,20.751-5.475C404.438,335.856,406.011,326.159,406.011,326.159z"/>
					<path style="fill-rule:evenodd;clip-rule:evenodd;fill:#C35A5A;" d="M370.864,314.559c-0.056-0.172,0.037-0.357,0.208-0.413
						c0.169-0.056,0.354,0.037,0.41,0.208c0.005,0.008,0.905,2.882,4.949,4.189c0.436,0.055,5.972,0.739,11.039,0.537
						c0.048-0.012,0.167-0.046,0.329-0.112l0.008-0.004l0.033-0.014c0.568-0.234,1.618-0.83,2.256-2.177
						c0.064-0.137,0.116-0.288,0.153-0.45c0.175-0.776,0.004-1.804-0.712-2.884c-0.74-1.116-2.059-2.282-4.165-3.279
						c-1.292-0.612-2.878-1.161-4.806-1.596c-0.177-0.04-0.287-0.216-0.247-0.392c0.04-0.176,0.215-0.286,0.39-0.246
						c0.876,0.196,1.681,0.418,2.424,0.657c-0.31-0.441-0.874-1.02-1.871-1.479c-0.165-0.073-0.237-0.269-0.163-0.432
						c0.076-0.164,0.27-0.235,0.434-0.161c1.732,0.796,2.345,1.967,2.517,2.388c0.575,0.212,1.109,0.437,1.601,0.669
						c2.228,1.056,3.632,2.304,4.432,3.51c0.826,1.245,1.016,2.456,0.803,3.389c-0.047,0.209-0.114,0.406-0.198,0.586
						c-0.63,1.326-1.621,2.025-2.312,2.368c0.317,0.778,1.002,2.931,0.097,5.329c-0.141,0.374-0.397,0.712-0.74,1.016
						c0.536,1.069,0.84,2.618,0.814,4.042c-0.019,1.085-0.234,2.11-0.684,2.82c0.527,0.662,2.113,2.893,1.427,5.001
						c-0.413,1.268-1.814,2.979-3.42,4.34c-1.492,1.264-3.183,2.241-4.456,2.31c-0.181,0.009-0.335-0.13-0.344-0.311
						c-0.009-0.179,0.129-0.333,0.309-0.343c1.122-0.059,2.671-0.973,4.068-2.156c1.523-1.291,2.845-2.887,3.219-4.042
						c0.558-1.712-0.692-3.588-1.23-4.285l-0.034,0.028c-0.898,0.766-3.246,2.207-5.749,3.055c-1.691,0.572-3.464,0.878-4.939,0.539
						c-3.616-0.836-6.422-3.76-6.43-3.769c-0.125-0.13-0.121-0.337,0.009-0.462c0.13-0.125,0.339-0.121,0.462,0.009
						c0.008,0.009,2.678,2.792,6.105,3.583c1.342,0.31,2.993,0.019,4.582-0.52c2.422-0.818,4.679-2.201,5.536-2.931
						c0.073-0.063,0.143-0.135,0.206-0.213l0.006-0.008l0.021-0.026c0.451-0.584,0.664-1.566,0.684-2.629
						c0.022-1.282-0.234-2.662-0.692-3.632c-2.605,1.702-8.125,2.166-10.134,2.335l-0.44,0.036
						c-1.014,0.081-2.549-0.362-4.025-1.174c-1.305-0.716-2.58-1.723-3.431-2.909c-0.104-0.147-0.07-0.352,0.076-0.457
						c0.147-0.105,0.353-0.071,0.457,0.075c0.79,1.103,1.985,2.044,3.211,2.717c1.373,0.755,2.768,1.169,3.658,1.098l0.44-0.038
						c2.034-0.171,7.817-0.657,10.05-2.352c0.025-0.034,0.059-0.063,0.097-0.086l0.029-0.013c0.315-0.265,0.549-0.557,0.671-0.88
						c0.829-2.194,0.196-4.155-0.088-4.847c-0.113,0.037-0.179,0.052-0.179,0.052l-0.063,0.008
						c-5.336,0.218-11.199-0.542-11.217-0.544l-0.057-0.014C371.874,317.769,370.867,314.567,370.864,314.559L370.864,314.559z
						 M389.871,323.247c0.007,0.02,3.076,7.386,11.783,5.936c0.179-0.03,0.299-0.198,0.269-0.376
						c-0.029-0.179-0.199-0.3-0.375-0.269c-8.197,1.365-11.071-5.532-11.079-5.552c-0.072-0.164-0.265-0.24-0.431-0.169
						C389.874,322.889,389.798,323.082,389.871,323.247L389.871,323.247z M397.148,340.75c-0.167,0.068-0.359-0.012-0.427-0.177
						c-0.069-0.168,0.011-0.358,0.179-0.428c0.008-0.003,3.265-1.336,5.682-3.982c0.121-0.134,0.328-0.143,0.462-0.022
						c0.134,0.122,0.144,0.328,0.022,0.462C400.551,339.359,397.158,340.748,397.148,340.75L397.148,340.75z M405.084,316.755
						c-0.036-0.176,0.077-0.35,0.254-0.385c0.177-0.036,0.351,0.078,0.386,0.255c0.003,0.019,1.38,6.664-0.053,12.773
						c-0.041,0.176-0.217,0.285-0.393,0.244c-0.176-0.041-0.285-0.218-0.243-0.393C406.435,323.279,405.087,316.774,405.084,316.755
						L405.084,316.755z M385.764,305.774l1.499,1.89c0.111,0.141,0.318,0.163,0.458,0.052c0.142-0.112,0.165-0.318,0.053-0.459
						l-1.498-1.889c-0.111-0.141-0.318-0.165-0.46-0.053C385.675,305.427,385.65,305.633,385.764,305.774z"/>
				</g>
				<path style="fill-rule:evenodd;clip-rule:evenodd;fill:#3C2E99;" d="M411.342,317.783c0,0,3.033,0.543,3.468,6.61
					c0.433,6.068-4.769,17.771-7.586,20.046c-2.817,2.275-5.418,0.759-5.418,0.759l24.758,16.47l11.379-31.1
					C437.942,330.568,422.771,321.899,411.342,317.783z"/>
				<path style="fill-rule:evenodd;clip-rule:evenodd;fill:#FFFFFF;" d="M422.175,320.272c0,0,3.65,0.652,4.171,7.949
					c0.521,7.299-5.735,21.372-9.124,24.107c-3.387,2.737-6.515,0.914-6.515,0.914l27.347,18.189
					c7.498-11.419,13.581-23.186,18.404-35.153C444.002,329.999,429.319,322.845,422.175,320.272z"/>
			</g>
		</g>
		<path style="fill-rule:evenodd;clip-rule:evenodd;fill:#F4E0E1;" d="M411.533,210.519L411.533,210.519
			c2.025-2.026,5.34-2.026,7.366,0l0.5,0.5l0.5-0.5c2.026-2.026,5.341-2.026,7.367,0l0,0c2.025,2.026,2.025,5.342,0,7.368
			l-0.5,0.499l-7.367,7.367l-7.367-7.367l-0.499-0.499C409.506,215.861,409.506,212.545,411.533,210.519z"/>
		<path style="fill-rule:evenodd;clip-rule:evenodd;fill:#FFFFFF;" d="M73.099,279.326c0-0.568,0.46-1.028,1.027-1.028
			c0.567,0,1.028,0.46,1.028,1.028v4.622c0,0.567-0.461,1.028-1.028,1.028c-0.567,0-1.027-0.461-1.027-1.028V279.326L73.099,279.326
			z M66.093,283.078c-0.401-0.401-0.401-1.053,0-1.453c0.401-0.4,1.053-0.4,1.453,0l3.269,3.27c0.401,0.4,0.401,1.052,0,1.453
			c-0.401,0.401-1.052,0.401-1.453,0L66.093,283.078L66.093,283.078z M63.794,290.685c-0.568,0-1.028-0.46-1.028-1.028
			c0-0.567,0.46-1.027,1.028-1.027h4.623c0.567,0,1.027,0.46,1.027,1.027c0,0.568-0.46,1.028-1.027,1.028H63.794L63.794,290.685z
			 M67.546,297.688c-0.4,0.402-1.052,0.402-1.453,0c-0.401-0.399-0.401-1.052,0-1.452l3.269-3.269c0.401-0.402,1.052-0.402,1.453,0
			c0.401,0.4,0.401,1.052,0,1.453L67.546,297.688L67.546,297.688z M75.154,299.989c0,0.567-0.461,1.027-1.028,1.027
			c-0.567,0-1.027-0.46-1.027-1.027v-4.623c0-0.566,0.46-1.027,1.027-1.027c0.567,0,1.028,0.461,1.028,1.027V299.989L75.154,299.989
			z M82.158,296.236c0.401,0.4,0.401,1.053,0,1.452c-0.401,0.402-1.052,0.402-1.453,0l-3.269-3.268
			c-0.401-0.401-0.401-1.053,0-1.453c0.401-0.402,1.052-0.402,1.454,0L82.158,296.236L82.158,296.236z M84.458,288.629
			c0.567,0,1.027,0.46,1.027,1.027c0,0.568-0.46,1.028-1.027,1.028h-4.624c-0.567,0-1.027-0.46-1.027-1.028
			c0-0.567,0.46-1.027,1.027-1.027H84.458L84.458,288.629z M80.705,281.625c0.401-0.4,1.052-0.4,1.453,0
			c0.401,0.4,0.401,1.052,0,1.453l-3.269,3.27c-0.401,0.401-1.052,0.401-1.454,0c-0.401-0.401-0.401-1.053,0-1.453L80.705,281.625z"
			/>
		<path style="fill-rule:evenodd;clip-rule:evenodd;fill:#FFFFFF;" d="M403.478,251.749c0-0.567,0.46-1.027,1.028-1.027
			c0.566,0,1.027,0.46,1.027,1.027v4.623c0,0.566-0.461,1.026-1.027,1.026c-0.568,0-1.028-0.46-1.028-1.026V251.749L403.478,251.749
			z M396.472,255.501c-0.399-0.4-0.399-1.052,0-1.454c0.401-0.399,1.054-0.399,1.455,0l3.269,3.269c0.4,0.401,0.4,1.054,0,1.454
			c-0.402,0.4-1.053,0.4-1.454,0L396.472,255.501L396.472,255.501z M394.174,263.108c-0.567,0-1.028-0.461-1.028-1.027
			c0-0.568,0.461-1.028,1.028-1.028h4.623c0.566,0,1.026,0.46,1.026,1.028c0,0.566-0.461,1.027-1.026,1.027H394.174L394.174,263.108
			z M397.927,270.112c-0.401,0.401-1.054,0.401-1.455,0c-0.399-0.401-0.399-1.052,0-1.453l3.27-3.268
			c0.401-0.401,1.052-0.401,1.454,0c0.4,0.401,0.4,1.052,0,1.453L397.927,270.112L397.927,270.112z M405.533,272.412
			c0,0.568-0.461,1.027-1.027,1.027c-0.568,0-1.028-0.459-1.028-1.027v-4.623c0-0.567,0.46-1.027,1.028-1.027
			c0.566,0,1.027,0.46,1.027,1.027V272.412L405.533,272.412z M412.537,268.659c0.401,0.401,0.401,1.052,0,1.453
			c-0.401,0.401-1.052,0.401-1.453,0l-3.268-3.268c-0.402-0.401-0.402-1.052,0-1.453c0.401-0.401,1.052-0.401,1.453,0
			L412.537,268.659L412.537,268.659z M414.837,261.052c0.568,0,1.028,0.46,1.028,1.028c0,0.566-0.46,1.027-1.028,1.027h-4.623
			c-0.566,0-1.027-0.461-1.027-1.027c0-0.568,0.461-1.028,1.027-1.028H414.837L414.837,261.052z M411.084,254.046
			c0.401-0.399,1.052-0.399,1.453,0c0.401,0.402,0.401,1.054,0,1.454l-3.269,3.269c-0.401,0.4-1.052,0.4-1.453,0
			c-0.402-0.4-0.402-1.053,0-1.454L411.084,254.046z"/>
		<g>
			<path style="fill-rule:evenodd;clip-rule:evenodd;fill:#1B1061;" d="M262.28,254.495c8.837,1.94,42.959,13.785,49.289,15.785
				c0.51,0.16,1.17,0.448,1.95,0.898v140.315l-136.055,0.498l12.027-145.127c8.286-3.946,20.028-8.117,36.765-12.959L262.28,254.495
				z"/>
			<path style="fill-rule:evenodd;clip-rule:evenodd;fill:#2A1D7D;" d="M262.28,254.495c8.837,1.94,42.959,13.785,49.289,15.785
				c0.51,0.16,1.17,0.448,1.95,0.898v65.141H183.736l5.755-69.455c8.286-3.946,20.028-8.117,36.765-12.959L262.28,254.495z"/>
			<path style="fill-rule:evenodd;clip-rule:evenodd;fill:#1B1061;" d="M262.28,254.495c7.686,1.688,34.498,10.866,45.518,14.545
				l-50.316-3.791l3.18-10.78L262.28,254.495z"/>
			<polygon style="fill-rule:evenodd;clip-rule:evenodd;fill:#3C2E99;" points="183.251,342.17 184.329,329.168 310.066,329.168 
				310.066,342.17 			"/>
			<path style="fill-rule:evenodd;clip-rule:evenodd;fill:#2A1D7D;" d="M313.52,271.178c8.926,5.145,33.921,31.794,37.211,140.18
				l-44.803,0.163c-2.032-16.479-7.095-59.19-9.056-91.065C295.403,299.462,303.604,272.128,313.52,271.178z"/>
			<path style="fill-rule:evenodd;clip-rule:evenodd;fill:#3C2E99;" d="M344.785,344.46c0.561,3.389,1.093,6.932,1.593,10.629
				c-15.963-5.742-37.841,1.296-46.253,4.473c-0.328-3.335-0.651-6.698-0.962-10.061C308.962,346.085,328.218,340.75,344.785,344.46
				z"/>
			<path style="fill-rule:evenodd;clip-rule:evenodd;fill:#2A1D7D;" d="M184.932,411.964l-46.887,0.171
				c0,0,28.895-117.667,32.506-128.082c2.644-7.625,9.241-13.869,28.722-21.337c-9.142,12.991-10.43,46.035-10.43,46.035
				L184.932,411.964z"/>
			<path style="fill-rule:evenodd;clip-rule:evenodd;fill:#3C2E99;" d="M152.671,353.098c0.82-3.281,1.645-6.583,2.469-9.869
				c12.014-0.342,24.135,2.656,32.199,5.235l-0.385,10.177C179.241,355.939,165.353,351.979,152.671,353.098z"/>
			<g>
				<path style="fill-rule:evenodd;clip-rule:evenodd;fill:#C35A5A;" d="M205.539,197.712c-0.275,0.037-0.546,0.083-0.814,0.139
					l-0.009,0.003l0.001-0.001c-4.954,1.037-8.717,5.384-8.818,10.661c-0.115,6.134,4.763,11.201,10.896,11.317
					c6.134,0.117,11.201-4.762,11.317-10.895c0.068-3.564-1.551-6.768-4.123-8.849c0.283,3.279-0.238,7.338-4.424,7.744l0.122-6.404
					C209.735,198.833,207.317,197.64,205.539,197.712z"/>
				<path style="fill-rule:evenodd;clip-rule:evenodd;fill:#C35A5A;" d="M281.226,197.712c0.274,0.037,0.545,0.083,0.815,0.139
					l0.009,0.003l-0.002-0.001c4.954,1.037,8.717,5.384,8.819,10.661c0.114,6.134-4.764,11.201-10.896,11.317
					c-6.136,0.117-11.201-4.762-11.318-10.895c-0.067-3.564,1.551-6.768,4.123-8.849c-0.282,3.279,0.238,7.338,4.425,7.744
					l-0.121-6.404C277.029,198.833,279.448,197.64,281.226,197.712z"/>
			</g>
			<polygon style="fill-rule:evenodd;clip-rule:evenodd;fill:#141428;" points="195.146,175.249 203.108,204.254 210.665,173.044 
							"/>
			<path style="fill-rule:evenodd;clip-rule:evenodd;fill:#DE9396;" d="M244.273,218.732L244.273,218.732
				c9.909,0,18.016,8.107,18.016,18.015v23.832c0,9.908-8.107,18.016-18.016,18.016l0,0c-9.91,0-18.016-8.108-18.016-18.016v-23.832
				C226.257,226.839,234.363,218.732,244.273,218.732z"/>
			<path style="fill-rule:evenodd;clip-rule:evenodd;fill:#C35A5A;" d="M262.222,235.2c0.044,0.51,0.066,1.026,0.066,1.547v23.831
				c0,2.217-0.404,4.342-1.146,6.308l-34.885-15.6v-13.389c6.42-1.182,21.99-2.792,22.897-3.548
				C249.736,233.863,256.173,234.487,262.222,235.2z"/>
			<path style="fill-rule:evenodd;clip-rule:evenodd;fill:#DE9396;" d="M203.117,179.653c-0.005,0.198-0.008,0.398-0.008,0.603
				v11.121v23.469c0,20.917,17.116,38.032,38.033,38.032l0,0c20.913,0,38.028-17.115,38.028-38.032v-5.078v-18.391v-11.121
				c0-3.652-0.248-6.169-1.107-9.088c-4.103-16.567-19.138-28.943-36.922-28.943l0,0
				C220.426,142.225,203.441,159.011,203.117,179.653z"/>
			<path style="fill-rule:evenodd;clip-rule:evenodd;fill:#C35A5A;" d="M203.117,179.653c-0.005,0.198-0.008,0.398-0.008,0.603
				v11.121v6.812l36.75-26.51c0,0,10.185-7.586,21.238-3.468c11.053,4.118,1.95-12.353,1.95-12.353l-40.093-6.719l-18.99,23.125
				C203.448,174.653,203.156,177.124,203.117,179.653z"/>
			<path style="fill-rule:evenodd;clip-rule:evenodd;fill:#FFFFFF;" d="M245.777,224.655c0.214,5.432-4.017,10.007-9.446,10.221
				c-5.433,0.214-10.009-4.016-10.223-9.447h0.017c-0.037-0.934,0.697-1.728,1.631-1.765l16.238-0.639
				c0.934-0.038,1.729,0.696,1.766,1.63H245.777z"/>
			<g>
				<path style="fill-rule:evenodd;clip-rule:evenodd;fill:#C35A5A;" d="M257.157,209.256c-3.681-0.07-6.723,2.859-6.792,6.539
					c-0.07,3.681,2.858,6.724,6.538,6.793c3.682,0.07,6.725-2.857,6.794-6.54C263.767,212.369,260.837,209.326,257.157,209.256z"/>
				<path style="fill-rule:evenodd;clip-rule:evenodd;fill:#C35A5A;" d="M215.614,208.439c-3.681-0.069-6.722,2.859-6.792,6.539
					c-0.069,3.682,2.858,6.723,6.54,6.793c3.681,0.07,6.723-2.857,6.793-6.539C222.224,211.551,219.296,208.509,215.614,208.439z"/>
			</g>
			<path style="fill-rule:evenodd;clip-rule:evenodd;fill:#141428;" d="M213.483,189.265c-0.666,0.333-1.477,0.063-1.81-0.603
				c-0.333-0.665-0.063-1.479,0.6-1.809c3.579-1.845,8.364-2.06,11.876,0.047c0.636,0.381,0.845,1.214,0.464,1.851
				c-0.38,0.637-1.215,0.848-1.852,0.465C219.919,187.512,216.361,187.89,213.483,189.265z"/>
			<path style="fill-rule:evenodd;clip-rule:evenodd;fill:#E7B7B9;" d="M230.862,209.868c-0.932,1.281-2.557,3.617-2.691,4.484
				c-0.188,1.223,2.538,1.926,4.418,1.409c1.335-0.366,1.129-3.354,0.737-5.231C232.896,208.462,232.332,207.846,230.862,209.868z"
				/>
			<path style="fill-rule:evenodd;clip-rule:evenodd;fill:#141428;" d="M248.893,189.265c-0.665,0.333-1.477,0.063-1.81-0.603
				c-0.333-0.665-0.063-1.479,0.6-1.809c3.58-1.845,8.365-2.06,11.876,0.047c0.636,0.381,0.846,1.214,0.464,1.851
				c-0.38,0.637-1.215,0.848-1.853,0.465C255.33,187.512,251.771,187.89,248.893,189.265z"/>
			<path style="fill-rule:evenodd;clip-rule:evenodd;fill:#141428;" d="M253.577,195.763L253.577,195.763
				c1.53,0,2.781,1.252,2.781,2.783v3.727c0,1.529-1.251,2.781-2.781,2.781l0,0c-1.53,0-2.781-1.251-2.781-2.781v-3.727
				C250.796,197.015,252.047,195.763,253.577,195.763z"/>
			<path style="fill-rule:evenodd;clip-rule:evenodd;fill:#141428;" d="M218.167,195.763L218.167,195.763
				c1.53,0,2.782,1.252,2.782,2.783v3.727c0,1.529-1.252,2.781-2.782,2.781l0,0c-1.53,0-2.781-1.251-2.781-2.781v-3.727
				C215.386,197.015,216.637,195.763,218.167,195.763z"/>
			<path style="fill-rule:evenodd;clip-rule:evenodd;fill:#141428;" d="M258.464,167.646c0,0,1.229,18.447,12.932,19.313
				c0,0-1.137,17.121,7.774,17.121c0,0,1.101-7.205,6.361-4.848c0,0,7.535-25.276,8.402-33.077
				c0.867-7.802-13.22-31.208-33.158-19.938c-19.938,11.269-27.524,20.154-27.524,20.154l3.054,1.091
				C236.306,167.462,250.264,160.846,258.464,167.646z"/>
			<path style="fill-rule:evenodd;clip-rule:evenodd;fill:#141428;" d="M258.464,167.646c0,0-1.505-10.848-10.565-9.869
				c-7.881,0.852-24.723,30.944-42.266,34.864c-19.502,4.357-37.615-20.024-26.943-42.061
				C202.471,101.474,293.286,107.748,258.464,167.646z"/>
			<path style="fill-rule:evenodd;clip-rule:evenodd;fill:#151532;" d="M175.567,165.861c-0.272-4.963,0.654-10.184,3.122-15.28
				c0.545-1.126,1.138-2.212,1.75-3.28c15.87,4.03,42.068,4.05,62.136-28.742c1.539,0.28,3.026,0.643,4.466,1.071
				C237.354,138.319,212.903,175.538,175.567,165.861z"/>
			<path style="fill-rule:evenodd;clip-rule:evenodd;fill:#1B1061;" d="M243.874,278.898c0,0-0.143-2.548-0.143-6.612
				c0-2.225,1.816-2.937,4.55-4.577c10.454-6.278,13.368-12.602,14.007-18.984c0,0,2.43,0.433,2.43,2.546c0,2.113,0,7.748,0,7.748
				S262.816,278.898,243.874,278.898z"/>
			<path style="fill-rule:evenodd;clip-rule:evenodd;fill:#1B1061;" d="M240.657,278.483c0,0,0-4.808,0-7.192
				c0-2.383-2.222-3.413-4.226-4.875c-2.004-1.464-10.174-6.337-10.174-16.306c0,0-1.259,0.486-1.259,2.03c0,1.544,0,6.124,0,10.458
				C224.998,266.932,228.818,276.128,240.657,278.483z"/>
			<g>
				<path style="fill:#141428;" d="M297.786,334.237c-0.377,0-0.714-0.26-0.8-0.642c-0.035-0.154-3.489-15.539-5.948-20.813
					c-0.192-0.411-0.015-0.897,0.396-1.09c0.409-0.19,0.897-0.014,1.088,0.396c2.534,5.438,5.921,20.512,6.063,21.15
					c0.1,0.44-0.178,0.879-0.621,0.977C297.903,334.23,297.844,334.237,297.786,334.237z"/>
			</g>
			<g>
				<path style="fill:#141428;" d="M184.828,415.546c-0.011,0-0.021-0.001-0.032-0.001c-0.452-0.018-0.805-0.397-0.787-0.849
					l4.017-105.976c0.017-0.454,0.414-0.791,0.85-0.788c0.452,0.017,0.804,0.397,0.787,0.849l-4.016,105.975
					C185.629,415.2,185.266,415.546,184.828,415.546z"/>
			</g>
			<g>
				<path style="fill:#141428;" d="M188.137,328.21c-0.375,0-0.713-0.259-0.799-0.64l-2.783-12.353
					c-0.1-0.441,0.178-0.881,0.619-0.979c0.442-0.102,0.88,0.178,0.979,0.618l2.784,12.354c0.1,0.44-0.178,0.88-0.619,0.978
					C188.257,328.202,188.196,328.21,188.137,328.21z"/>
			</g>
			<g>
				<path style="fill:#141428;" d="M306.79,419.232c-0.404,0-0.757-0.301-0.81-0.715c-0.075-0.576-7.474-58.136-9.927-98.012
					c-0.432-6.194-0.048-13.136,1.112-20.066c0.073-0.444,0.495-0.734,0.942-0.673c0.447,0.075,0.747,0.497,0.673,0.944
					c-1.139,6.805-1.517,13.613-1.093,19.688c2.45,39.828,9.843,97.334,9.915,97.909c0.059,0.449-0.258,0.859-0.707,0.918
					C306.861,419.229,306.826,419.232,306.79,419.232z"/>
			</g>
			<path style="fill-rule:evenodd;clip-rule:evenodd;fill:none;" d="M265.835,148.837c-0.945,5.534-3.299,11.805-7.371,18.81
				c0,0-1.505-10.848-10.565-9.869c-2.698,0.292-6.449,4.013-10.917,8.937 M263.264,157.838c0,0,9.034-6.353,16.66,2.1
				 M259.97,164.944c0,0,8.843-4.696,12.647,3.105 M261.121,162.693c0,0-0.592-19.037-15.112-18.17
				c-14.52,0.867-35.108,37.058-57.431,28.39 M263.608,156.936c0,0,2.771-21.733-16.733-28.235"/>
			<g>
				<path style="fill-rule:evenodd;clip-rule:evenodd;fill:#DE9396;" d="M287.452,124.911l28.81-28.81
					c4.047-4.045,10.665-4.045,14.711,0l28.81,28.81c4.045,4.045,4.045,10.666,0,14.711l-28.81,28.81
					c-4.046,4.046-10.664,4.046-14.711,0l-28.81-28.81C283.406,135.577,283.406,128.956,287.452,124.911z"/>
				<path style="fill-rule:evenodd;clip-rule:evenodd;fill:#FFFFFF;" d="M290.486,117.759l28.81-28.81
					c4.046-4.045,10.665-4.045,14.712,0l28.809,28.81c4.045,4.046,4.045,10.666,0,14.711l-28.809,28.81
					c-4.047,4.046-10.666,4.046-14.712,0l-28.81-28.81C286.441,128.425,286.441,121.805,290.486,117.759z"/>
				<path style="fill-rule:evenodd;clip-rule:evenodd;fill:#DE9396;" d="M297.492,118.047l28.81-28.81
					c2.184-2.182,5.059-3.275,7.936-3.275c2.875,0,5.752,1.093,7.934,3.275l28.809,28.81c2.183,2.182,3.275,5.059,3.275,7.935
					c0,2.875-1.093,5.752-3.275,7.935l-28.809,28.809c-2.183,2.183-5.059,3.274-7.934,3.274c-2.877,0-5.752-1.091-7.936-3.274
					l-28.81-28.809c-2.184-2.183-3.273-5.061-3.273-7.935C294.219,123.106,295.309,120.229,297.492,118.047L297.492,118.047z
					 M327.46,90.396l-28.81,28.809c-1.862,1.862-2.794,4.319-2.794,6.777c0,2.456,0.932,4.913,2.794,6.775l28.81,28.81
					c1.862,1.862,4.319,2.794,6.777,2.794c2.456,0,4.913-0.932,6.775-2.794l28.81-28.81c1.863-1.862,2.795-4.319,2.795-6.775
					c0-2.457-0.932-4.914-2.795-6.777l-28.81-28.809c-1.862-1.863-4.319-2.794-6.775-2.794
					C331.779,87.602,329.322,88.533,327.46,90.396z"/>
				<path style="fill-rule:evenodd;clip-rule:evenodd;fill:#6960A5;" d="M334.862,118.098c-0.763-1.394-1.822-2.612-3.242-3.377
					c-1.331-0.717-2.052-1.864-2.451-3.291c-0.48-1.714-0.5-3.737-0.5-5.51c0-0.698-0.565-1.263-1.263-1.263h-2.163
					c-0.222,0-0.44,0.038-0.65,0.104c-0.998,0.313-1.847,1.305-2.346,2.186c-0.685,1.209-1.021,2.622-1.022,4.007
					c-0.001,0.929,0.147,1.849,0.425,2.735c0.191,0.614,0.724,2.409,0.475,3.022c-0.062,0.044-0.294,0.052-0.369,0.052h-5.424
					c-0.616,0-1.244,0.067-1.841,0.228c-0.838,0.225-1.604,0.638-2.182,1.296c-0.703,0.803-0.984,1.797-0.984,2.852
					c0,0.546,0.074,1.095,0.194,1.629c-0.78,2.015-0.94,4.519,0.649,6.167c-0.099,1.666,0.313,3.482,1.726,4.497
					c0.77,2.35,2.657,3.872,5.214,3.872h9.942c1.698,0,3.396-0.9,4.777-1.941c0.129,0.47,0.382,0.904,0.743,1.265l0.044,0.041
					c0.522,0.492,1.209,0.769,1.927,0.769h4.519c0.748,0,1.462-0.297,1.989-0.825c0.528-0.529,0.824-1.241,0.824-1.988V120.35
					c0-0.748-0.296-1.459-0.842-2.005l-0.043-0.038c-0.521-0.494-1.208-0.77-1.929-0.77h-4.519
					C335.931,117.537,335.344,117.737,334.862,118.098L334.862,118.098z M333.729,132.119c-1.139,1.149-3.053,2.656-4.679,2.656
					h-9.942c-1.445,0-2.622-0.986-2.897-2.412c-0.079-0.378-0.325-0.7-0.672-0.873c-0.918-0.458-0.944-1.968-0.814-2.81
					c0.105-0.485-0.086-0.982-0.487-1.276c-1.2-0.883-0.793-2.802-0.28-3.94c0.155-0.285,0.191-0.609,0.106-0.922
					c-0.12-0.45-0.213-0.935-0.213-1.403c0-0.413,0.074-0.868,0.355-1.19c0.239-0.27,0.597-0.427,0.939-0.519
					c0.382-0.103,0.793-0.141,1.186-0.141h5.424c1.212,0,2.191-0.398,2.684-1.587c0.566-1.367,0.038-3.424-0.381-4.765
					c-0.201-0.643-0.308-1.31-0.311-1.983c-0.001-0.952,0.223-1.931,0.693-2.762c0.147-0.259,0.556-0.876,0.868-1.008h0.843
					c0.031,1.646,0.145,3.351,0.587,4.929c0.592,2.11,1.721,3.774,3.686,4.831c1.868,1.007,2.986,3.454,3.305,5.486V132.119
					L333.729,132.119z M336.542,120.064h4.519c0.073,0,0.134,0.02,0.173,0.054l0.03,0.032c0.053,0.053,0.084,0.124,0.084,0.2v14.273
					c0,0.075-0.031,0.147-0.085,0.201c-0.054,0.053-0.125,0.084-0.202,0.084h-4.519c-0.072,0-0.132-0.019-0.17-0.052l-0.031-0.033
					c-0.052-0.054-0.085-0.126-0.085-0.201V120.35c0-0.077,0.033-0.147,0.087-0.202
					C336.395,120.095,336.466,120.064,336.542,120.064z"/>
			</g>
			<g>
				<path style="fill-rule:evenodd;clip-rule:evenodd;fill:#DE9396;" d="M106.139,125.253h4.143c0.997,0,1.813-0.813,1.813-1.812
					v-4.144c0-0.997-0.816-1.812-1.813-1.812h-4.143c-0.997,0-1.812,0.815-1.812,1.812v4.144
					C104.327,124.439,105.142,125.253,106.139,125.253z"/>
				<path style="fill-rule:evenodd;clip-rule:evenodd;fill:#F4E0E1;" d="M120.508,125.253h4.143c0.997,0,1.812-0.813,1.812-1.812
					v-4.144c0-0.997-0.814-1.812-1.812-1.812h-4.143c-0.997,0-1.812,0.815-1.812,1.812v4.144
					C118.696,124.439,119.511,125.253,120.508,125.253z"/>
				<path style="fill-rule:evenodd;clip-rule:evenodd;fill:#DE9396;" d="M134.878,125.253h4.143c0.997,0,1.811-0.813,1.811-1.812
					v-4.144c0-0.997-0.814-1.812-1.811-1.812h-4.143c-0.998,0-1.813,0.815-1.813,1.812v4.144
					C133.065,124.439,133.879,125.253,134.878,125.253z"/>
				<path style="fill-rule:evenodd;clip-rule:evenodd;fill:#DE9396;" d="M149.246,125.253h4.143c0.998,0,1.814-0.813,1.814-1.812
					v-4.144c0-0.997-0.816-1.812-1.814-1.812h-4.143c-0.996,0-1.812,0.815-1.812,1.812v4.144
					C147.434,124.439,148.25,125.253,149.246,125.253z"/>
				<path style="fill-rule:evenodd;clip-rule:evenodd;fill:#DE9396;" d="M163.616,125.253h4.143c0.998,0,1.813-0.813,1.813-1.812
					v-4.144c0-0.997-0.815-1.812-1.813-1.812h-4.143c-0.997,0-1.812,0.815-1.812,1.812v4.144
					C161.804,124.439,162.619,125.253,163.616,125.253z"/>
				<path style="fill-rule:evenodd;clip-rule:evenodd;fill:#F4E0E1;" d="M177.985,125.253h4.143c0.997,0,1.812-0.813,1.812-1.812
					v-4.144c0-0.997-0.815-1.812-1.812-1.812h-4.143c-0.998,0-1.813,0.815-1.813,1.812v4.144
					C176.173,124.439,176.988,125.253,177.985,125.253z"/>
				<path style="fill-rule:evenodd;clip-rule:evenodd;fill:#DE9396;" d="M135.397,109.587h4.144c0.997,0,1.812-0.814,1.812-1.812
					v-4.144c0-0.997-0.814-1.812-1.812-1.812h-4.144c-0.997,0-1.811,0.815-1.811,1.812v4.144
					C133.586,108.773,134.4,109.587,135.397,109.587z"/>
				<path style="fill-rule:evenodd;clip-rule:evenodd;fill:#F4E0E1;" d="M149.767,109.587h4.143c0.998,0,1.812-0.814,1.812-1.812
					v-4.144c0-0.997-0.814-1.812-1.812-1.812h-4.143c-0.997,0-1.812,0.815-1.812,1.812v4.144
					C147.955,108.773,148.77,109.587,149.767,109.587z"/>
				<path style="fill-rule:evenodd;clip-rule:evenodd;fill:#DE9396;" d="M164.136,109.587h4.143c0.997,0,1.812-0.814,1.812-1.812
					v-4.144c0-0.997-0.815-1.812-1.812-1.812h-4.143c-0.998,0-1.811,0.815-1.811,1.812v4.144
					C162.324,108.773,163.138,109.587,164.136,109.587z"/>
				<path style="fill-rule:evenodd;clip-rule:evenodd;fill:#F4E0E1;" d="M149.246,142.082h4.143c0.998,0,1.812-0.816,1.812-1.812
					v-4.144c0-0.997-0.814-1.812-1.812-1.812h-4.143c-0.997,0-1.812,0.815-1.812,1.812v4.144
					C147.434,141.266,148.249,142.082,149.246,142.082z"/>
				<path style="fill-rule:evenodd;clip-rule:evenodd;fill:#DE9396;" d="M163.616,142.082h4.143c0.998,0,1.813-0.816,1.813-1.812
					v-4.144c0-0.997-0.815-1.812-1.813-1.812h-4.143c-0.997,0-1.812,0.815-1.812,1.812v4.144
					C161.804,141.266,162.619,142.082,163.616,142.082z"/>
			</g>
			<path style="fill-rule:evenodd;clip-rule:evenodd;fill:#F4E0E1;" d="M130.664,196.433L130.664,196.433
				c2.026-2.026,5.341-2.026,7.367,0l0.5,0.5l0.501-0.5c2.025-2.026,5.341-2.026,7.367,0l0,0c2.026,2.026,2.026,5.34,0,7.366
				l-0.5,0.5l-7.368,7.367l-7.367-7.367l-0.5-0.5C128.638,201.773,128.638,198.459,130.664,196.433z"/>
		</g>
		<path style="fill-rule:evenodd;clip-rule:evenodd;fill:#F4E0E1;" d="M388.126,116.68L388.126,116.68
			c2.026-2.026,5.342-2.026,7.368,0l0.5,0.5l0.5-0.5c2.025-2.026,5.341-2.026,7.366,0l0,0c2.026,2.026,2.026,5.34,0,7.366
			l-0.499,0.5l-7.367,7.367l-7.368-7.367l-0.5-0.5C386.1,122.021,386.1,118.707,388.126,116.68z"/>
		<path style="fill-rule:evenodd;clip-rule:evenodd;fill:#0E0737;" d="M59.665,407.63h356.399c3.396,0,6.177,2.782,6.177,6.178l0,0
			c0,3.395-2.781,6.178-6.177,6.178h-20.843c-1.888,0-3.432,1.545-3.432,3.432l0,0c0,1.886,1.544,3.433,3.432,3.433h7.625
			c2.359,0,4.29,1.931,4.29,4.288l0,0c0,2.358-1.931,4.291-4.29,4.291H73.564c-2.358,0-4.289-1.932-4.289-4.291l0,0
			c0-2.358,1.931-4.288,4.289-4.288h6.006c1.887,0,3.431-1.546,3.431-3.433l0,0c0-1.888-1.544-3.432-3.431-3.432H59.665
			c-3.396,0-6.177-2.78-6.177-6.178l0,0C53.488,410.411,56.269,407.63,59.665,407.63L59.665,407.63z M62.882,435.429
			c2.266,0,4.118-1.854,4.118-4.119v-0.343c0-2.265-1.853-4.117-4.118-4.117l0,0c-2.265,0-4.118,1.852-4.118,4.117v0.343
			C58.764,433.576,60.617,435.429,62.882,435.429L62.882,435.429z"/>
	</g>
</g>
</svg>
